<svg id="Layer_1" data-name="Layer 1" xmlns="http://www.w3.org/2000/svg" viewBox="0 0 3840 2160"><defs><style>.cls-1{fill:#f5cdd1;}.cls-2{fill:#113b37;}.cls-3{fill:#1457c0;}.cls-4{fill:#eceff1;}.cls-5{fill:#fa8d3a;}.cls-6{fill:#fdc900;}</style></defs><title>magisk-full-4K-black</title><path class="cls-1" d="M1492.6,1207.5c61,25.56,28.61-64,137.31-145.4,61.21-45.87,242.25-176.51,203.84-149.46v-.14C1637.37,1051,1433.32,1034.19,1339.67,733,1323.06,679.64,1287.13,1121.33,1492.6,1207.5Z"/><path class="cls-2" d="M1250.57,1105.43c-27.69-38.77,68.65,249.49,309.91,253,176.79,2.55,197.38-171,315.23-176.22,35.57-1.56,43.17-57.37,44.73-75.76-.28-3.19-.35-5.47-.35-5.47l.85-.85c-.07-.07-50.76-55-114.81-36.7l-.07.07C1698,1094.31,1656.06,1242.63,1547,1261c-22.58,3.76-47.93,10.5-77.53,9.08C1414,1267.38,1344,1236.5,1250.57,1105.43Z"/><path class="cls-1" d="M2347.57,1207.5c205.41-86,169.48-527.81,152.94-474.41-93.65,301.17-297.7,318.07-494.09,179.48-38.34-27.05,142.64,103.59,203.84,149.46v.07C2319,1143.41,2286.48,1233,2347.57,1207.5Z"/><path class="cls-2" d="M1920.48,1106.42c1.42,17.61,8.74,75,44.8,76.61,117.86,5.25,138.45,178.78,315.24,176.22,241.33-3.48,337.6-291.74,309.91-253-93.5,131.06-163.44,162-218.82,164.58-29.6,1.42-55-5.33-77.53-9.09-109-18.32-151-166.64-259.08-197.45l-.07-.07c-61.13-17.4-109.55,31.24-114,35.85h0C1920.87,1100.1,1920.73,1102.8,1920.48,1106.42Z"/><path class="cls-3" d="M2493.05,607.23c-83.71,210.37-400.5,131.2-430.75,264-6,26.06,53.68,87.54,168.48,82.86C2467.92,944.33,2511.65,560.29,2493.05,607.23Z"/><path class="cls-4" d="M1624.94,270.9c-49.27,4.83-174,78.39-151.22,108.84,120.77,161.6,195,309.28,334.62,422.38,18.74,15.19-83.71-155.7-88-251.84h-.07C1715.61,445,1674.22,266.07,1624.94,270.9Z"/><path class="cls-3" d="M1609.32,954c114.88,4.68,174.45-56.8,168.49-82.86-30.25-132.77-347.12-53.6-430.76-264C1328.48,560.29,1372.19,944.33,1609.32,954Z"/><path class="cls-5" d="M1364.31,545.38c8.66,72.5,85.91,141.08,189.07,169,110.33,29.89,239.26,98.27,239.26,98.27C1637.3,716,1670.17,728.16,1583.84,638,1504.46,555.13,1444,389.42,1444,389.42S1357.92,491.35,1364.31,545.38Z"/><path class="cls-6" d="M1910.65,452.94c9.94-119.35-63.83-192.69-91-214.63s-79-5.11-141.36,15.48c70.64,47.85,106.07,104.8,115.87,182.75-14.84,180.27,83.07,268,94.57,573.46v.07C1910.08,1018.24,1900.78,572.29,1910.65,452.94Z"/><path class="cls-2" d="M2005.57,1259.42c-90.81,124-167.27-4.89-167.27-4.89s11.14,65.39-2.42,209.59c-17,180.76,69.72,467.88,69.72,467.88s118.22-287.69,97.56-473.56C1986.19,1305.64,2010.83,1252.25,2005.57,1259.42Z"/><path class="cls-4" d="M2345.87,1375.5c14.77-24.35-84.77,94.92-183.32,9.72-68.3-59.07-80-77-133.12-128.36-17.89-17.33,19.88,72,30.38,152.72l-.07.07c14.77,113-1.63,174.8-23,295.64C2026,1766.43,2257.19,1521.5,2345.87,1375.5Z"/><path class="cls-5" d="M2256.27,638c-86.26,90.17-53.53,78-208.81,174.66,0,0,128.94-68.45,239.27-98.27,103.09-27.9,180.48-96.48,189.07-169,6.39-54-79.73-156-79.73-156S2335.65,555.11,2256.27,638Z"/><path class="cls-4" d="M1807.48,1266l-.07-.07c-53.1,51.33-64.89,69.29-133.12,128.36-98.48,85.2-198.09-34.08-183.32-9.72,88.68,146,319.92,390.92,309.13,329.79-21.37-120.92-37.77-182.76-23-295.64C1787.67,1338,1825.48,1248.63,1807.48,1266Z"/><path class="cls-6" d="M2020.34,238.5c-27.12,21.93-100.82,95.28-90.95,214.63s.5,565.29,21.94,557.06c11.5-305.44,109.34-393.2,94.57-573.46v-.23c9.87-77.95,45.37-134.9,115.87-182.75C2099.36,233.27,2047.39,216.5,2020.34,238.5Z"/><path class="cls-4" d="M2215.16,271c-49.27-4.82-90.66,174.16-95.35,279.46-4.26,96.13-106.78,267-88,251.83l-.07-.07C2171.32,689,2245.59,541.41,2366.36,379.81,2389.25,349.36,2264.48,275.8,2215.16,271Z"/></svg>